<svg xmlns="http://www.w3.org/2000/svg" xmlns:xlink="http://www.w3.org/1999/xlink" viewBox="0 0 339.8 336.99"><defs><style>.cls-1,.cls-23{fill:#d8dade;}.cls-2{isolation:isolate;}.cls-3{fill:#cccdd2;}.cls-16,.cls-23,.cls-3{mix-blend-mode:multiply;}.cls-4{fill:#fff;}.cls-5{fill:#004a7c;}.cls-6{clip-path:url(#clip-path);}.cls-7{fill:#732313;}.cls-8{fill:#f5ba93;}.cls-9{fill:#e55747;}.cls-10{fill:#da9b7e;}.cls-11{fill:#cb4639;}.cls-12{fill:#e44e40;}.cls-13{fill:#2d120e;}.cls-14{fill:#170000;}.cls-15{fill:#b0afb5;}.cls-16{fill:#c3c5ca;}.cls-17{clip-path:url(#clip-path-2);}.cls-18{fill:#9d6b3f;}.cls-19{fill:#5ab9bd;}.cls-20{fill:#815931;}.cls-21{fill:#51361d;}.cls-22{fill:#843921;}.cls-24{clip-path:url(#clip-path-3);}.cls-25{fill:#de8021;}.cls-26{fill:#f2d4b6;}.cls-27{fill:#b3211b;}.cls-28{fill:#e24e70;}.cls-29{fill:#e56681;}.cls-30{fill:#737277;opacity:0.07;}.cls-31{fill:#e1ab81;}.cls-32{fill:#ce966d;}.cls-33{fill:#434041;}.cls-34{fill:#40290f;}.cls-35{fill:#edeef0;}.cls-36{fill:#1f140f;}.cls-37{fill:#89878c;}</style><clipPath id="clip-path" transform="translate(-49.24 -57.35)"><path class="cls-1" d="M118.74,182.56a30,30,0,1,1-30-30A30,30,0,0,1,118.74,182.56Z"/></clipPath><clipPath id="clip-path-2" transform="translate(-49.24 -57.35)"><path class="cls-1" d="M342,219.22a24.81,24.81,0,1,1-24.81-24.81A24.81,24.81,0,0,1,342,219.22Z"/></clipPath><clipPath id="clip-path-3" transform="translate(-49.24 -57.35)"><path class="cls-1" d="M281.2,100.92a20.51,20.51,0,1,1-20.5-20.5A20.5,20.5,0,0,1,281.2,100.92Z"/></clipPath></defs><title>user</title><g class="cls-2"><g id="Capa_1" data-name="Capa 1"><rect class="cls-3" x="1.4" y="63.22" width="125.02" height="138.22" rx="13.98"/><rect class="cls-4" y="61.47" width="125.02" height="138.22" rx="13.98"/><path class="cls-5" d="M174.25,139.79v-7a14,14,0,0,0-14-14H63.21a14,14,0,0,0-14,14v7Z" transform="translate(-49.24 -57.35)"/><path class="cls-4" d="M147.46,133.89a1.14,1.14,0,0,1-1.14,1.14h-7.61a1.15,1.15,0,0,1-1.15-1.14v-7.62a1.15,1.15,0,0,1,1.15-1.14h7.61a1.14,1.14,0,0,1,1.14,1.14Z" transform="translate(-49.24 -57.35)"/><path class="cls-4" d="M161.83,133.89a1.14,1.14,0,0,1-1.14,1.14h-7.62a1.14,1.14,0,0,1-1.14-1.14v-7.62a1.14,1.14,0,0,1,1.14-1.14h7.62a1.14,1.14,0,0,1,1.14,1.14Z" transform="translate(-49.24 -57.35)"/><path class="cls-4" d="M131,130.08a5,5,0,0,1-5,4.95H62a5,5,0,0,1-5-4.95h0a5,5,0,0,1,5-5H126a5,5,0,0,1,5,5Z" transform="translate(-49.24 -57.35)"/><path class="cls-1" d="M118.74,182.56a30,30,0,1,1-30-30A30,30,0,0,1,118.74,182.56Z" transform="translate(-49.24 -57.35)"/><g class="cls-6"><path class="cls-7" d="M103.75,199.8c1,4.43-30.25,3.94-30.25,0,4.87-8.41.16-14-.41-25.11s29.85-8.09,30.49,0S99.5,193.91,103.75,199.8Z" transform="translate(-49.24 -57.35)"/><path class="cls-8" d="M98.3,220.52h4.47l-.11-1.59s-.49-13.89-1-17.79S98,197.28,98,197.28l-2.24,6.54s2,12.35,2.23,15A16.19,16.19,0,0,0,98.3,220.52Z" transform="translate(-49.24 -57.35)"/><path class="cls-8" d="M77.37,220.52c.16-.81.27-1.46.31-1.86.24-2.64,2.23-15,2.23-15l-2.24-6.54s-3.07,0-3.61,3.86-1,17.79-1,17.79l-.13,1.74Z" transform="translate(-49.24 -57.35)"/><path class="cls-9" d="M78.19,215.11l1.2,5.41H96.33l1.8-5.41s2.83-2.1,2.81-4.05-3.62-7.24-3.62-7.24l1.25-6.68-5.35-2.53H82.82L77.58,197l1.09,6.8s-2.92,5.13-3,7.24S78.19,215.11,78.19,215.11Z" transform="translate(-49.24 -57.35)"/><path class="cls-8" d="M93.22,194.61s1.89,7.4.86,9.29c-1.14,2.13-10.44,1.95-11.69,0s.43-9.29.43-9.29l1.6-.08v-7.8h7.15v7.48Z" transform="translate(-49.24 -57.35)"/><path class="cls-10" d="M90.37,193.46a9.45,9.45,0,0,0,1.2-.42v-6.31H84.42v5.69C86.31,193.32,88.16,194.09,90.37,193.46Z" transform="translate(-49.24 -57.35)"/><path class="cls-8" d="M103.63,182.44a2.63,2.63,0,0,1-2.11-.29s-5,.26-5-1.05v-4.4c0-3.13,5-2.82,5-2.82a1.89,1.89,0,0,1,2.66-.51C106.58,175.09,105.52,181.64,103.63,182.44Z" transform="translate(-49.24 -57.35)"/><path class="cls-8" d="M73.86,182.44a2.66,2.66,0,0,0,2.12-.29s5,.26,5-1.05v-4.4c0-3.13-5-2.82-5-2.82a1.9,1.9,0,0,0-2.66-.51C70.91,175.09,72,181.64,73.86,182.44Z" transform="translate(-49.24 -57.35)"/><path class="cls-8" d="M101.64,180.64c0,5.83-8.45,12.29-13,12.29-5,0-13-6.87-13-12.65V168.09c0-17.22,25.94-18.36,25.94,0Z" transform="translate(-49.24 -57.35)"/><path class="cls-7" d="M76.49,174.06c-.09-1.64,2.63-3,2.9-8.94,2.26,1.25,13.2,7.67,21.45,8.9a13.27,13.27,0,0,0,1,5.61s0-3,0-4.55,1.94-2.08,1.94-2.08v-5.32c0-2.85-2.92-16.1-15.15-13C77,152,71.68,164.21,71.92,167.22s.58,7.08.58,7.08,2.66-2.47,3,.94c.19,1.84,0,3.78,1.36,4.08C76.72,177.68,76.61,176.15,76.49,174.06Z" transform="translate(-49.24 -57.35)"/><polygon class="cls-10" points="39.19 117.6 39.19 126.14 40.69 124.96 39.19 117.6"/><path class="cls-7" d="M86.17,173.27s-2.29-1.54-3.76-1.05a12.4,12.4,0,0,0-3.28,2.07l-.21-.76a5.46,5.46,0,0,1,3.36-1.81A6.07,6.07,0,0,1,86.17,173.27Z" transform="translate(-49.24 -57.35)"/><path class="cls-11" d="M84.9,186.49s1.21,1.16,1.9,1.21a17,17,0,0,0,4.06-.13,9.12,9.12,0,0,0,1.29-1.06l-3.42-.16C88.2,186.32,84.9,186.49,84.9,186.49Z" transform="translate(-49.24 -57.35)"/><path class="cls-12" d="M83,185.59a9.26,9.26,0,0,0,2.49.57c.71-.09,1.91-1.09,2.19-1l1,.42a3.88,3.88,0,0,1,1.21-.42c.29.05,1.76,1,2.28,1a11.93,11.93,0,0,0,1.72-.57,13.85,13.85,0,0,1-2.08,1.17,8.31,8.31,0,0,1-3.06-.07c-.93-.06-2.3.6-3.37,0S83,185.59,83,185.59Z" transform="translate(-49.24 -57.35)"/><path class="cls-7" d="M91.32,173.13s2.3-1.55,3.76-1.06a12.81,12.81,0,0,1,3.29,2.07l.2-.76a5.42,5.42,0,0,0-3.36-1.81C93.23,171.4,91.32,173.13,91.32,173.13Z" transform="translate(-49.24 -57.35)"/><path class="cls-13" d="M94.51,174.56c1.67,0,1.41,1.24,1.95,1.57.15-.09,1.06-.39,1.06-.39a3.51,3.51,0,0,0-3-1.49,3.3,3.3,0,0,0-2.93,1.46,1.24,1.24,0,0,1,.48.09C92.59,175.46,92.84,174.56,94.51,174.56Z" transform="translate(-49.24 -57.35)"/><path class="cls-4" d="M97.12,175.74S96.77,177,94.64,177a3.64,3.64,0,0,1-3-1.29,3.7,3.7,0,0,1,3-1.23C96.77,174.48,97.12,175.74,97.12,175.74Z" transform="translate(-49.24 -57.35)"/><path class="cls-13" d="M93.18,175.71a1.49,1.49,0,0,0,.62,1.22,5.07,5.07,0,0,0,1.68,0,1.51,1.51,0,0,0,0-2.44,5.07,5.07,0,0,0-1.68,0A1.48,1.48,0,0,0,93.18,175.71Z" transform="translate(-49.24 -57.35)"/><path class="cls-14" d="M95.23,175.74a.59.59,0,0,1-.59.59.6.6,0,1,1,0-1.19A.59.59,0,0,1,95.23,175.74Z" transform="translate(-49.24 -57.35)"/><path class="cls-4" d="M94.48,175.17a.27.27,0,0,1-.27.27.27.27,0,0,1,0-.54A.27.27,0,0,1,94.48,175.17Z" transform="translate(-49.24 -57.35)"/><path class="cls-4" d="M94.65,175.75a.14.14,0,0,1-.14.14.14.14,0,0,1-.14-.14.15.15,0,0,1,.14-.14A.14.14,0,0,1,94.65,175.75Z" transform="translate(-49.24 -57.35)"/><path class="cls-13" d="M83,174.56c-1.68,0-1.42,1.24-1.95,1.57-.15-.09-1.07-.39-1.07-.39a3.51,3.51,0,0,1,3-1.49,3.3,3.3,0,0,1,2.93,1.46,1.21,1.21,0,0,0-.48.09C84.9,175.46,84.66,174.56,83,174.56Z" transform="translate(-49.24 -57.35)"/><path class="cls-4" d="M80.38,175.74s.34,1.26,2.47,1.26a3.67,3.67,0,0,0,3-1.29,3.73,3.73,0,0,0-3-1.23C80.72,174.48,80.38,175.74,80.38,175.74Z" transform="translate(-49.24 -57.35)"/><path class="cls-13" d="M84.32,175.71a1.5,1.5,0,0,1-.63,1.22,5.71,5.71,0,0,1-.84.07,5.83,5.83,0,0,1-.84-.07,1.51,1.51,0,0,1,0-2.44,5.83,5.83,0,0,1,.84-.07,5.71,5.71,0,0,1,.84.07A1.49,1.49,0,0,1,84.32,175.71Z" transform="translate(-49.24 -57.35)"/><path class="cls-14" d="M82.26,175.74a.6.6,0,1,0,.59-.6A.59.59,0,0,0,82.26,175.74Z" transform="translate(-49.24 -57.35)"/><path class="cls-4" d="M83,175.17a.27.27,0,1,0,.27-.27A.27.27,0,0,0,83,175.17Z" transform="translate(-49.24 -57.35)"/><path class="cls-4" d="M82.84,175.75a.14.14,0,0,0,.28,0,.14.14,0,1,0-.28,0Z" transform="translate(-49.24 -57.35)"/></g><rect class="cls-15" x="74.46" y="97.44" width="40.27" height="7.62"/><rect class="cls-1" x="74.46" y="110.5" width="40.27" height="3.81"/><rect class="cls-1" x="74.46" y="118.3" width="40.27" height="3.81"/><rect class="cls-1" x="74.46" y="126.1" width="40.27" height="3.81"/><rect class="cls-1" x="74.46" y="133.89" width="40.27" height="3.81"/><rect class="cls-1" x="74.46" y="141.7" width="40.27" height="3.81"/><rect class="cls-1" x="74.46" y="149.49" width="40.27" height="3.81"/><rect class="cls-1" x="14.96" y="165.46" width="99.77" height="3.81"/><rect class="cls-1" x="14.96" y="174.9" width="99.77" height="3.81"/><path class="cls-16" d="M381.27,174.32a11.56,11.56,0,0,0-9.62-5.16H291.37a11.57,11.57,0,0,0-11.57,11.56v91.2a14.09,14.09,0,0,0,12.72,13H372.8a11.56,11.56,0,0,0,11.57-11.56v-91.2A11.51,11.51,0,0,0,381.27,174.32Z" transform="translate(-49.24 -57.35)"/><rect class="cls-3" x="236.39" y="110.6" width="103.4" height="114.32" rx="11.56"/><rect class="cls-4" x="235.24" y="109.15" width="103.4" height="114.32" rx="11.56"/><path class="cls-5" d="M387.87,183.84v-5.78a11.55,11.55,0,0,0-11.56-11.56H296a11.56,11.56,0,0,0-11.56,11.56v5.78Z" transform="translate(-49.24 -57.35)"/><path class="cls-4" d="M365.72,179a.94.94,0,0,1-1,.94h-6.3a.94.94,0,0,1-.94-.94v-6.3a.94.94,0,0,1,.94-.94h6.3a.94.94,0,0,1,1,.94Z" transform="translate(-49.24 -57.35)"/><path class="cls-4" d="M377.6,179a1,1,0,0,1-1,.94h-6.3a.94.94,0,0,1-.94-.94v-6.3a.94.94,0,0,1,.94-.94h6.3a1,1,0,0,1,1,.94Z" transform="translate(-49.24 -57.35)"/><path class="cls-4" d="M352.07,175.81A4.09,4.09,0,0,1,348,179.9H295a4.09,4.09,0,0,1-4.09-4.09h0a4.09,4.09,0,0,1,4.09-4.09h53a4.09,4.09,0,0,1,4.09,4.09Z" transform="translate(-49.24 -57.35)"/><path class="cls-1" d="M342,219.22a24.81,24.81,0,1,1-24.81-24.81A24.81,24.81,0,0,1,342,219.22Z" transform="translate(-49.24 -57.35)"/><g class="cls-17"><path class="cls-18" d="M325.81,256.48h4.07l-.11-1.44s-.44-12.6-.93-16.14-3.27-3.51-3.27-3.51l-2,5.94s1.8,11.2,2,13.6C325.59,255.27,325.68,255.81,325.81,256.48Z" transform="translate(-49.24 -57.35)"/><path class="cls-18" d="M306.83,256.48c.14-.73.25-1.32.28-1.69.22-2.4,2-13.6,2-13.6l-2-5.93s-2.79,0-3.27,3.5-.93,16.14-.93,16.14l-.12,1.58Z" transform="translate(-49.24 -57.35)"/><path class="cls-19" d="M307.57,251.57l1.09,4.91H324l1.63-4.91s2.57-1.9,2.55-3.67-3.28-6.57-3.28-6.57l1.13-6.06-4.85-2.3h-9.44L307,235.16l1,6.17s-2.64,4.65-2.68,6.57S307.57,251.57,307.57,251.57Z" transform="translate(-49.24 -57.35)"/><path class="cls-18" d="M321.21,233s1.71,6.71.78,8.43c-1,1.93-9.48,1.77-10.61,0s.39-8.43.39-8.43l1.45-.07v-7.07h6.49v6.77Z" transform="translate(-49.24 -57.35)"/><path class="cls-20" d="M318.62,231.93c.38-.11.74-.24,1.09-.38v-5.72h-6.49V231C314.94,231.79,316.62,232.49,318.62,231.93Z" transform="translate(-49.24 -57.35)"/><path class="cls-18" d="M330.65,221.93a2.4,2.4,0,0,1-1.92-.27s-4.57.24-4.57-.95v-4c0-2.84,4.57-2.56,4.57-2.56a1.73,1.73,0,0,1,2.42-.46C333.33,215.26,332.37,221.21,330.65,221.93Z" transform="translate(-49.24 -57.35)"/><path class="cls-18" d="M303.64,221.93a2.43,2.43,0,0,0,1.93-.27s4.56.24,4.56-.95v-4c0-2.84-4.56-2.56-4.56-2.56a1.73,1.73,0,0,0-2.42-.46C301,215.26,301.93,221.21,303.64,221.93Z" transform="translate(-49.24 -57.35)"/><path class="cls-18" d="M328.84,220.29c0,5.3-7.66,11.16-11.76,11.16-4.52,0-11.77-6.24-11.77-11.49V208.91c0-15.63,23.53-16.66,23.53,0Z" transform="translate(-49.24 -57.35)"/><path class="cls-21" d="M306,214.33c-.08-1.49,8.3-3.54,10.58-10.05,2.22,5.6,4,8.89,11.51,10a11.94,11.94,0,0,0,.88,5.08s0-2.72,0-4.12,1.76-1.89,1.76-1.89v-4.82c0-2.59-2.65-14.61-13.74-11.8-10.57-2.44-15.14,7.76-15.13,11.38a57.58,57.58,0,0,0,.51,6.42s2.42-2.24,2.75.85c.18,1.67,0,3.43,1.25,3.71C306.24,217.6,306.13,216.22,306,214.33Z" transform="translate(-49.24 -57.35)"/><polygon class="cls-20" points="267.62 157.78 267.62 165.53 268.98 164.46 267.62 157.78"/><path class="cls-21" d="M314.81,213.61s-2.08-1.4-3.41-1a11.5,11.5,0,0,0-3,1.88l-.18-.69a4.92,4.92,0,0,1,3-1.64A5.55,5.55,0,0,1,314.81,213.61Z" transform="translate(-49.24 -57.35)"/><path class="cls-22" d="M313.66,225.6s1.1,1.06,1.72,1.1a15.43,15.43,0,0,0,3.69-.12,7.31,7.31,0,0,0,1.17-1l-3.11-.15C316.66,225.45,313.66,225.6,313.66,225.6Z" transform="translate(-49.24 -57.35)"/><path class="cls-22" d="M311.92,224.79a8.17,8.17,0,0,0,2.26.51c.64-.07,1.73-1,2-.87l.9.38a3.37,3.37,0,0,1,1.1-.38c.26,0,1.6.93,2.07.87a10.79,10.79,0,0,0,1.56-.51,12.29,12.29,0,0,1-1.89,1.05,7.2,7.2,0,0,1-2.77-.06c-.85-.05-2.09.55-3.06,0S311.92,224.79,311.92,224.79Z" transform="translate(-49.24 -57.35)"/><path class="cls-21" d="M319.48,213.48s2.09-1.4,3.41-1a11.44,11.44,0,0,1,3,1.88l.18-.69a5,5,0,0,0-3-1.65A5.6,5.6,0,0,0,319.48,213.48Z" transform="translate(-49.24 -57.35)"/><path class="cls-13" d="M322.38,214.77c1.51,0,1.28,1.13,1.76,1.44a10.37,10.37,0,0,1,1-.37,3.19,3.19,0,0,0-2.73-1.34,3,3,0,0,0-2.66,1.32,1.1,1.1,0,0,1,.43.08C320.64,215.6,320.86,214.77,322.38,214.77Z" transform="translate(-49.24 -57.35)"/><path class="cls-4" d="M324.74,215.84s-.31,1.15-2.24,1.15a3.31,3.31,0,0,1-2.74-1.17,3.36,3.36,0,0,1,2.74-1.12C324.43,214.7,324.74,215.84,324.74,215.84Z" transform="translate(-49.24 -57.35)"/><path class="cls-13" d="M321.17,215.82a1.35,1.35,0,0,0,.57,1.11,6,6,0,0,0,.76.06,6.32,6.32,0,0,0,.76-.06,1.37,1.37,0,0,0,.56-1.11,1.34,1.34,0,0,0-.56-1.1,4.77,4.77,0,0,0-.76-.06,4.59,4.59,0,0,0-.76.06A1.32,1.32,0,0,0,321.17,215.82Z" transform="translate(-49.24 -57.35)"/><path class="cls-14" d="M323,215.84a.54.54,0,1,1-1.07,0,.54.54,0,0,1,1.07,0Z" transform="translate(-49.24 -57.35)"/><path class="cls-4" d="M322.35,215.33a.24.24,0,0,1-.24.24.23.23,0,0,1-.24-.24.24.24,0,0,1,.24-.24A.24.24,0,0,1,322.35,215.33Z" transform="translate(-49.24 -57.35)"/><path class="cls-4" d="M322.51,215.86a.13.13,0,1,1-.13-.13A.13.13,0,0,1,322.51,215.86Z" transform="translate(-49.24 -57.35)"/><path class="cls-13" d="M311.92,214.77c-1.51,0-1.28,1.13-1.77,1.44a9.37,9.37,0,0,0-1-.37,3.19,3.19,0,0,1,2.73-1.34,3,3,0,0,1,2.66,1.32,1.1,1.1,0,0,0-.43.08C313.66,215.6,313.44,214.77,311.92,214.77Z" transform="translate(-49.24 -57.35)"/><path class="cls-4" d="M309.55,215.84s.32,1.15,2.25,1.15a3.28,3.28,0,0,0,2.73-1.17,3.33,3.33,0,0,0-2.73-1.12C309.87,214.7,309.55,215.84,309.55,215.84Z" transform="translate(-49.24 -57.35)"/><path class="cls-13" d="M313.13,215.82a1.38,1.38,0,0,1-.57,1.11,4.84,4.84,0,0,1-1.52,0,1.37,1.37,0,0,1-.56-1.11,1.34,1.34,0,0,1,.56-1.1,4.84,4.84,0,0,1,1.52,0A1.34,1.34,0,0,1,313.13,215.82Z" transform="translate(-49.24 -57.35)"/><path class="cls-14" d="M311.26,215.84a.54.54,0,1,0,1.08,0,.54.54,0,0,0-1.08,0Z" transform="translate(-49.24 -57.35)"/><path class="cls-4" d="M312,215.33a.24.24,0,0,0,.48,0,.24.24,0,1,0-.48,0Z" transform="translate(-49.24 -57.35)"/><path class="cls-4" d="M311.79,215.86a.13.13,0,0,0,.13.13.13.13,0,0,0,0-.26A.13.13,0,0,0,311.79,215.86Z" transform="translate(-49.24 -57.35)"/></g><rect class="cls-15" x="296.82" y="138.89" width="33.31" height="6.3"/><rect class="cls-1" x="296.82" y="149.7" width="33.31" height="3.15"/><polygon class="cls-1" points="330.13 159.3 320.52 159.3 296.82 159.3 296.82 156.15 330.13 156.15 330.13 159.3"/><rect class="cls-1" x="296.82" y="162.6" width="33.31" height="3.15"/><rect class="cls-1" x="296.82" y="169.05" width="33.31" height="3.15"/><rect class="cls-1" x="296.82" y="175.5" width="33.31" height="3.15"/><rect class="cls-1" x="296.82" y="181.95" width="33.31" height="3.15"/><rect class="cls-1" x="247.61" y="195.16" width="82.52" height="3.15"/><rect class="cls-1" x="247.61" y="202.96" width="82.52" height="3.15"/><path class="cls-23" d="M313.79,65.37a9.54,9.54,0,0,0-8-4.27H239.49a9.55,9.55,0,0,0-9.55,9.56V146a11.62,11.62,0,0,0,10.51,10.75H306.8a9.55,9.55,0,0,0,9.55-9.55V71.86A9.46,9.46,0,0,0,313.79,65.37Z" transform="translate(-49.24 -57.35)"/><path class="cls-3" d="M195,1.2h66.35a9.55,9.55,0,0,1,9.55,9.55V86.12a9.56,9.56,0,0,1-9.56,9.56H195a9.55,9.55,0,0,1-9.55-9.55V10.75A9.56,9.56,0,0,1,195,1.2Z"/><rect class="cls-4" x="184.46" width="85.46" height="94.48" rx="9.55"/><path class="cls-5" d="M319.15,71.68V66.9a9.56,9.56,0,0,0-9.55-9.55H243.25a9.56,9.56,0,0,0-9.56,9.55v4.78Z" transform="translate(-49.24 -57.35)"/><rect class="cls-4" x="244.84" y="4.31" width="6.77" height="6.77" rx="0.78"/><rect class="cls-4" x="254.66" y="4.31" width="6.77" height="6.77" rx="0.78"/><path class="cls-4" d="M289.56,65a3.39,3.39,0,0,1-3.39,3.39H242.38A3.38,3.38,0,0,1,239,65h0a3.38,3.38,0,0,1,3.38-3.38h43.79A3.39,3.39,0,0,1,289.56,65Z" transform="translate(-49.24 -57.35)"/><path class="cls-1" d="M281.2,100.92a20.51,20.51,0,1,1-20.5-20.5A20.5,20.5,0,0,1,281.2,100.92Z" transform="translate(-49.24 -57.35)"/><g class="cls-24"><path class="cls-25" d="M267.49,108.75c-3.35,3-10.84,2.53-13.08.82s-6.47-4.23-4.85-12.51,21.25-6.09,21.7,0S270.69,105.84,267.49,108.75Z" transform="translate(-49.24 -57.35)"/><path class="cls-26" d="M267.5,129.38h3.19l-.09-1.12s-.34-9.89-.72-12.67-2.57-2.75-2.57-2.75l-1.59,4.66s1.41,8.79,1.58,10.67C267.33,128.44,267.4,128.86,267.5,129.38Z" transform="translate(-49.24 -57.35)"/><path class="cls-26" d="M252.6,129.38c.12-.57.2-1,.23-1.32.17-1.88,1.58-10.67,1.58-10.67l-1.59-4.65s-2.19,0-2.57,2.75-.73,12.66-.73,12.66l-.09,1.23Z" transform="translate(-49.24 -57.35)"/><path class="cls-27" d="M253.19,125.54l.85,3.84H266.1l1.28-3.84s2-1.5,2-2.89-2.58-5.15-2.58-5.15l.89-4.76L263.88,111h-7.4l-3.73,1.71.78,4.84s-2.08,3.65-2.11,5.15S253.19,125.54,253.19,125.54Z" transform="translate(-49.24 -57.35)"/><path class="cls-26" d="M263.88,111s1.35,5.26.62,6.61c-.82,1.51-7.44,1.38-8.33,0s.31-6.61.31-6.61l1.14-.55v-5.06h5.09v4.83Z" transform="translate(-49.24 -57.35)"/><path class="cls-10" d="M261.86,110.13c.29-.09.58-.19.85-.3v-4.49h-5.09v4A5.85,5.85,0,0,0,261.86,110.13Z" transform="translate(-49.24 -57.35)"/><path class="cls-26" d="M271.3,102.28a1.9,1.9,0,0,1-1.51-.21s-3.59.19-3.59-.75V98.19c0-2.23,3.59-2,3.59-2a1.34,1.34,0,0,1,1.89-.36C273.4,97.05,272.64,101.72,271.3,102.28Z" transform="translate(-49.24 -57.35)"/><path class="cls-26" d="M250.11,102.28a1.87,1.87,0,0,0,1.5-.21s3.59.19,3.59-.75V98.19c0-2.23-3.59-2-3.59-2a1.34,1.34,0,0,0-1.89-.36C248,97.05,248.76,101.72,250.11,102.28Z" transform="translate(-49.24 -57.35)"/><path class="cls-26" d="M269.88,101c0,4.15-6,8.75-9.23,8.75-3.55,0-9.24-4.89-9.24-9V92.07c0-12.27,18.47-13.07,18.47,0Z" transform="translate(-49.24 -57.35)"/><path class="cls-25" d="M252,96.32c-.07-1.17,1.87-2.11,2.06-6.37,1.61.89,9.39,5.46,15.27,6.34a9.25,9.25,0,0,0,.69,4s0-2.13,0-3.22,1.38-1.5,1.38-1.5V91.78c0-2-2.08-11.46-10.78-9.26-8.29-1.92-12.05,6.78-11.87,8.92l.4,5s1.9-1.77,2.16.66c.14,1.31,0,2.69,1,2.91C252.14,98.89,252.06,97.81,252,96.32Z" transform="translate(-49.24 -57.35)"/><polygon class="cls-10" points="211.24 39.6 211.24 45.68 212.31 44.84 211.24 39.6"/><path class="cls-25" d="M258.87,95.76s-1.63-1.1-2.68-.76a9.06,9.06,0,0,0-2.34,1.48l-.14-.54a3.85,3.85,0,0,1,2.39-1.29A4.34,4.34,0,0,1,258.87,95.76Z" transform="translate(-49.24 -57.35)"/><path class="cls-28" d="M258,105.16s.87.83,1.36.86a11.27,11.27,0,0,0,2.88-.09,6.06,6.06,0,0,0,.93-.75l-2.45-.12C260.31,105,258,105.16,258,105.16Z" transform="translate(-49.24 -57.35)"/><path class="cls-29" d="M256.6,104.52a6.2,6.2,0,0,0,1.77.4c.51,0,1.36-.77,1.56-.68l.71.3a2.63,2.63,0,0,1,.86-.3c.2,0,1.25.73,1.63.68a8.14,8.14,0,0,0,1.22-.4,9.78,9.78,0,0,1-1.49.83,5.73,5.73,0,0,1-2.17,0c-.67,0-1.64.43-2.4,0S256.6,104.52,256.6,104.52Z" transform="translate(-49.24 -57.35)"/><path class="cls-25" d="M262.53,95.65s1.64-1.1,2.68-.75a9.14,9.14,0,0,1,2.34,1.47l.14-.54a3.89,3.89,0,0,0-2.38-1.29A4.41,4.41,0,0,0,262.53,95.65Z" transform="translate(-49.24 -57.35)"/><path class="cls-13" d="M264.8,96.67c1.19,0,1,.88,1.39,1.12.1-.06.76-.28.76-.28a2.51,2.51,0,0,0-2.15-1.06,2.33,2.33,0,0,0-2.08,1,.94.94,0,0,1,.34.06C263.44,97.31,263.61,96.67,264.8,96.67Z" transform="translate(-49.24 -57.35)"/><path class="cls-4" d="M266.66,97.51s-.25.9-1.76.9a2.6,2.6,0,0,1-2.15-.92,2.64,2.64,0,0,1,2.15-.88C266.41,96.61,266.66,97.51,266.66,97.51Z" transform="translate(-49.24 -57.35)"/><path class="cls-13" d="M263.86,97.49a1.06,1.06,0,0,0,.44.87,3.57,3.57,0,0,0,1.19,0,1.07,1.07,0,0,0,0-1.74,3.81,3.81,0,0,0-.59,0,3.86,3.86,0,0,0-.6,0A1.06,1.06,0,0,0,263.86,97.49Z" transform="translate(-49.24 -57.35)"/><path class="cls-14" d="M265.32,97.51a.43.43,0,1,1-.42-.42A.42.42,0,0,1,265.32,97.51Z" transform="translate(-49.24 -57.35)"/><path class="cls-4" d="M264.78,97.1a.19.19,0,0,1-.19.2.2.2,0,0,1-.19-.2.19.19,0,0,1,.19-.18A.18.18,0,0,1,264.78,97.1Z" transform="translate(-49.24 -57.35)"/><path class="cls-4" d="M264.91,97.52a.1.1,0,0,1-.11.1.1.1,0,0,1,0-.2A.1.1,0,0,1,264.91,97.52Z" transform="translate(-49.24 -57.35)"/><path class="cls-13" d="M256.6,96.67c-1.19,0-1,.88-1.39,1.12-.1-.06-.76-.28-.76-.28a2.51,2.51,0,0,1,2.15-1.06,2.33,2.33,0,0,1,2.08,1,.94.94,0,0,0-.34.06C258,97.31,257.79,96.67,256.6,96.67Z" transform="translate(-49.24 -57.35)"/><path class="cls-4" d="M254.74,97.51s.25.9,1.77.9a2.59,2.59,0,0,0,2.14-.92,2.63,2.63,0,0,0-2.14-.88C255,96.61,254.74,97.51,254.74,97.51Z" transform="translate(-49.24 -57.35)"/><path class="cls-13" d="M257.55,97.49a1.07,1.07,0,0,1-.45.87,3.57,3.57,0,0,1-1.19,0,1.07,1.07,0,0,1,0-1.74,3.86,3.86,0,0,1,.6,0,3.81,3.81,0,0,1,.59,0A1.07,1.07,0,0,1,257.55,97.49Z" transform="translate(-49.24 -57.35)"/><path class="cls-14" d="M256.08,97.51a.43.43,0,0,0,.85,0,.43.43,0,0,0-.85,0Z" transform="translate(-49.24 -57.35)"/><path class="cls-4" d="M256.62,97.1a.19.19,0,1,0,.38,0,.19.19,0,0,0-.38,0Z" transform="translate(-49.24 -57.35)"/><path class="cls-4" d="M256.5,97.52a.09.09,0,0,0,.1.1.1.1,0,0,0,0-.2A.09.09,0,0,0,256.5,97.52Z" transform="translate(-49.24 -57.35)"/></g><rect class="cls-15" x="235.35" y="24.58" width="27.53" height="5.21"/><rect class="cls-1" x="235.35" y="33.51" width="27.53" height="2.61"/><rect class="cls-1" x="235.35" y="38.84" width="27.53" height="2.61"/><rect class="cls-1" x="235.35" y="44.18" width="27.53" height="2.6"/><rect class="cls-1" x="235.35" y="49.51" width="27.53" height="2.6"/><rect class="cls-1" x="235.35" y="54.84" width="27.53" height="2.6"/><rect class="cls-1" x="235.35" y="60.17" width="27.53" height="2.6"/><rect class="cls-1" x="194.68" y="71.09" width="68.2" height="2.6"/><rect class="cls-1" x="194.68" y="77.53" width="68.2" height="2.6"/><path class="cls-30" d="M296.86,382.15c0,4.87-37.72,8.82-84.26,8.82s-84.27-4-84.27-8.82,37.73-8.82,84.27-8.82S296.86,377.28,296.86,382.15Z" transform="translate(-49.24 -57.35)"/><path class="cls-30" d="M290.19,382.15c0,4.48-34.74,8.12-77.59,8.12s-77.6-3.64-77.6-8.12S169.74,374,212.6,374,290.19,377.66,290.19,382.15Z" transform="translate(-49.24 -57.35)"/><path class="cls-30" d="M329,382.15c0,6.73-52.13,12.18-116.44,12.18S96.16,388.88,96.16,382.15,148.29,370,212.6,370,329,375.42,329,382.15Z" transform="translate(-49.24 -57.35)"/><path class="cls-30" d="M319.82,382.15c0,6.19-48,11.22-107.22,11.22s-107.22-5-107.22-11.22,48-11.22,107.22-11.22S319.82,376,319.82,382.15Z" transform="translate(-49.24 -57.35)"/><path class="cls-30" d="M312,382.15c0,5.74-44.51,10.4-99.42,10.4s-99.43-4.66-99.43-10.4,44.52-10.41,99.43-10.41S312,376.4,312,382.15Z" transform="translate(-49.24 -57.35)"/><ellipse class="cls-30" cx="163.36" cy="324.8" rx="90.92" ry="9.51"/><path class="cls-30" d="M250.23,382.15c0,2.17-16.85,3.94-37.63,3.94S175,384.32,175,382.15s16.85-3.94,37.64-3.94S250.23,380,250.23,382.15Z" transform="translate(-49.24 -57.35)"/><path class="cls-30" d="M247.26,382.15c0,2-15.52,3.62-34.66,3.62s-34.66-1.62-34.66-3.62,15.52-3.63,34.66-3.63S247.26,380.14,247.26,382.15Z" transform="translate(-49.24 -57.35)"/><path class="cls-30" d="M244.74,382.15c0,1.85-14.39,3.36-32.14,3.36s-32.14-1.51-32.14-3.36,14.39-3.36,32.14-3.36S244.74,380.29,244.74,382.15Z" transform="translate(-49.24 -57.35)"/><path class="cls-30" d="M242,382.15c0,1.7-13.16,3.07-29.39,3.07s-29.39-1.37-29.39-3.07,13.16-3.08,29.39-3.08S242,380.45,242,382.15Z" transform="translate(-49.24 -57.35)"/><path class="cls-30" d="M264.21,382.15c0,3-23.11,5.4-51.61,5.4S161,385.13,161,382.15s23.1-5.4,51.61-5.4S264.21,379.17,264.21,382.15Z" transform="translate(-49.24 -57.35)"/><path class="cls-30" d="M260.13,382.15c0,2.74-21.28,5-47.53,5s-47.53-2.23-47.53-5,21.28-5,47.53-5S260.13,379.4,260.13,382.15Z" transform="translate(-49.24 -57.35)"/><ellipse class="cls-30" cx="163.36" cy="324.8" rx="44.07" ry="4.61"/><path class="cls-30" d="M252.9,382.15c0,2.33-18,4.22-40.3,4.22s-40.3-1.89-40.3-4.22,18-4.22,40.3-4.22S252.9,379.82,252.9,382.15Z" transform="translate(-49.24 -57.35)"/><ellipse class="cls-30" cx="163.36" cy="324.8" rx="71.32" ry="7.46"/><path class="cls-30" d="M278.27,382.15c0,3.79-29.4,6.87-65.67,6.87s-65.68-3.08-65.68-6.87,29.41-6.87,65.68-6.87S278.27,378.35,278.27,382.15Z" transform="translate(-49.24 -57.35)"/><path class="cls-30" d="M273.5,382.15c0,3.52-27.27,6.37-60.9,6.37s-60.9-2.85-60.9-6.37,27.27-6.38,60.9-6.38S273.5,378.63,273.5,382.15Z" transform="translate(-49.24 -57.35)"/><path class="cls-30" d="M268.29,382.15c0,3.22-24.94,5.83-55.69,5.83s-55.69-2.61-55.69-5.83,24.93-5.83,55.69-5.83S268.29,378.93,268.29,382.15Z" transform="translate(-49.24 -57.35)"/><path class="cls-30" d="M238.55,382.15c0,1.5-11.62,2.71-26,2.71s-25.95-1.21-25.95-2.71,11.62-2.72,25.95-2.72S238.55,380.65,238.55,382.15Z" transform="translate(-49.24 -57.35)"/><path class="cls-30" d="M236.26,382.15c0,1.37-10.59,2.47-23.66,2.47s-23.66-1.1-23.66-2.47,10.59-2.48,23.66-2.48S236.26,380.78,236.26,382.15Z" transform="translate(-49.24 -57.35)"/><path class="cls-30" d="M234.65,382.15c0,1.27-9.87,2.31-22.05,2.31s-22.06-1-22.06-2.31,9.88-2.31,22.06-2.31S234.65,380.87,234.65,382.15Z" transform="translate(-49.24 -57.35)"/><path class="cls-30" d="M232.91,382.15c0,1.17-9.09,2.12-20.31,2.12s-20.31-.95-20.31-2.12S201.38,380,212.6,380,232.91,381,232.91,382.15Z" transform="translate(-49.24 -57.35)"/><path class="cls-30" d="M231.43,382.15c0,1.09-8.43,2-18.83,2s-18.83-.88-18.83-2,8.43-2,18.83-2S231.43,381.06,231.43,382.15Z" transform="translate(-49.24 -57.35)"/><path class="cls-30" d="M229.82,382.15c0,1-7.71,1.8-17.22,1.8s-17.22-.81-17.22-1.8,7.71-1.8,17.22-1.8S229.82,381.15,229.82,382.15Z" transform="translate(-49.24 -57.35)"/><path class="cls-30" d="M227.81,382.15c0,.88-6.81,1.59-15.21,1.59s-15.21-.71-15.21-1.59,6.81-1.59,15.21-1.59S227.81,381.27,227.81,382.15Z" transform="translate(-49.24 -57.35)"/><path class="cls-30" d="M226.46,382.15c0,.8-6.21,1.45-13.86,1.45s-13.86-.65-13.86-1.45,6.2-1.45,13.86-1.45S226.46,381.35,226.46,382.15Z" transform="translate(-49.24 -57.35)"/><path class="cls-30" d="M226.46,382.15c0,.8-6.21,1.45-13.86,1.45s-13.86-.65-13.86-1.45,6.2-1.45,13.86-1.45S226.46,381.35,226.46,382.15Z" transform="translate(-49.24 -57.35)"/><path class="cls-30" d="M225.37,382.15c0,.74-5.72,1.33-12.77,1.33s-12.77-.59-12.77-1.33,5.72-1.34,12.77-1.34S225.37,381.41,225.37,382.15Z" transform="translate(-49.24 -57.35)"/><path class="cls-30" d="M224.44,382.15c0,.68-5.3,1.24-11.84,1.24s-11.84-.56-11.84-1.24,5.3-1.24,11.84-1.24S224.44,381.46,224.44,382.15Z" transform="translate(-49.24 -57.35)"/><path class="cls-30" d="M223.42,382.15c0,.62-4.84,1.13-10.82,1.13s-10.83-.51-10.83-1.13S206.62,381,212.6,381,223.42,381.52,223.42,382.15Z" transform="translate(-49.24 -57.35)"/><path class="cls-30" d="M222.16,382.15c0,.55-4.28,1-9.56,1s-9.56-.45-9.56-1,4.28-1,9.56-1S222.16,381.6,222.16,382.15Z" transform="translate(-49.24 -57.35)"/><path class="cls-30" d="M221.31,382.15c0,.5-3.9.91-8.71.91s-8.72-.41-8.72-.91,3.91-.91,8.72-.91S221.31,381.64,221.31,382.15Z" transform="translate(-49.24 -57.35)"/><path class="cls-30" d="M220.72,382.15c0,.47-3.64.85-8.12.85s-8.13-.38-8.13-.85,3.64-.85,8.13-.85S220.72,381.68,220.72,382.15Z" transform="translate(-49.24 -57.35)"/><path class="cls-30" d="M220.08,382.15c0,.43-3.35.78-7.48.78s-7.48-.35-7.48-.78,3.35-.78,7.48-.78S220.08,381.72,220.08,382.15Z" transform="translate(-49.24 -57.35)"/><path class="cls-30" d="M219.54,382.15c0,.4-3.11.72-6.94.72s-6.94-.32-6.94-.72,3.11-.73,6.94-.73S219.54,381.75,219.54,382.15Z" transform="translate(-49.24 -57.35)"/><path class="cls-30" d="M218.94,382.15c0,.36-2.84.66-6.34.66s-6.35-.3-6.35-.66,2.84-.67,6.35-.67S218.94,381.78,218.94,382.15Z" transform="translate(-49.24 -57.35)"/><path class="cls-30" d="M218.2,382.15c0,.32-2.51.58-5.6.58s-5.6-.26-5.6-.58,2.5-.59,5.6-.59S218.2,381.82,218.2,382.15Z" transform="translate(-49.24 -57.35)"/><path class="cls-30" d="M217.71,382.15c0,.29-2.29.53-5.11.53s-5.11-.24-5.11-.53,2.29-.54,5.11-.54S217.71,381.85,217.71,382.15Z" transform="translate(-49.24 -57.35)"/><path class="cls-30" d="M217,382.15c0,.25-2,.46-4.38.46s-4.38-.21-4.38-.46,2-.46,4.38-.46S217,381.89,217,382.15Z" transform="translate(-49.24 -57.35)"/><path class="cls-30" d="M216.21,382.15c0,.21-1.62.38-3.61.38s-3.61-.17-3.61-.38,1.62-.38,3.61-.38S216.21,381.94,216.21,382.15Z" transform="translate(-49.24 -57.35)"/><path class="cls-30" d="M215.09,382.15a12.05,12.05,0,0,1-5,0,12.05,12.05,0,0,1,5,0Z" transform="translate(-49.24 -57.35)"/><path class="cls-30" d="M214.29,382.15a8.49,8.49,0,0,1-3.38,0,8,8,0,0,1,3.38,0Z" transform="translate(-49.24 -57.35)"/><path class="cls-31" d="M124.12,346.27c2.51,5.43,7.23,9.72,12.06,12.63l3.28,2,6.45,3.89,3.8,2.28c1,.61,2.67.41,3-.94s-.82-2.44-1.79-3.24-1.68-1.53-2.54-2.27c-1.79-1.55-3.51-3.19-5.3-4.75-.4-.34-.77-.73-1.19-1.06l1.41,1,3.45,2.49,4.33,3.15c1.37,1,2.74,2,4.12,3,1,.72,2,1.48,3,2.14s2.4.88,3.19-.05a2.33,2.33,0,0,0,.31-1.81,4.18,4.18,0,0,0-1.16-2.1c-.51-.46-1-.92-1.45-1.42a50.84,50.84,0,0,0-4.13-3.77c-1.54-1.33-3.08-2.65-4.65-3.95l-3.91-3.25c-.61-.51-1.22-1-1.86-1.51l0,0,18.35,14.41c1.22,1,4.22,2.57,5.51.47a3.88,3.88,0,0,0-.2-3,7.64,7.64,0,0,0-1.79-1.93c-1.36-1.23-2.64-2.5-4-3.68-2.88-2.41-5.72-4.85-8.68-7.17-.66-.51-1.29-1.06-2-1.54a69.78,69.78,0,0,0,6.92,5.11c2.74,1.86,4.49,3.42,6.64,4.69a4.82,4.82,0,0,0,2,.92,3.34,3.34,0,0,0,2.7-1c.69-1,0-2.95-1-3.76a108,108,0,0,0-14.17-10.88s-4.23-2.57-4.58-3c0,0,8.13,4.45,13.46,3.47,0,0,7-3.53-4.39-5.91,0,0-6.43-2.87-10.43-4.83a24.12,24.12,0,0,0-17-1.38s-7.44-4.58-9.37-6.2l-7.14,9.24S122.27,342.26,124.12,346.27Z" transform="translate(-49.24 -57.35)"/><path class="cls-31" d="M304.15,337.18c.5,6-1.5,12-4.26,16.94L298,357.47,294.32,364q-1.1,1.92-2.17,3.86c-.58,1-2.13,1.67-3,.64s-.5-2.52,0-3.7.7-2.16,1.08-3.23c.8-2.23,1.48-4.5,2.27-6.74.18-.49.31-1,.51-1.51l-.72,1.58-1.77,3.87-2.22,4.87q-1.05,2.31-2.11,4.62c-.51,1.12-1,2.26-1.56,3.35-.49.92-1.65,1.94-2.79,1.52a2.32,2.32,0,0,1-1.17-1.42,4.17,4.17,0,0,1,0-2.4c.21-.65.39-1.28.55-2a55,55,0,0,1,1.73-5.32c.7-1.91,1.38-3.83,2.1-5.73.61-1.58,1.21-3.17,1.81-4.75.27-.75.55-1.51.86-2.23l0,0-8.86,21.58c-.59,1.44-2.4,4.32-4.55,3.13a3.93,3.93,0,0,1-1.34-2.75,7.85,7.85,0,0,1,.61-2.56c.57-1.74,1.06-3.48,1.7-5.19,1.31-3.52,2.59-7.05,4-10.52.31-.77.59-1.56.94-2.31a70.51,70.51,0,0,1-3.5,7.86c-1.47,3-2.22,5.19-3.47,7.35a4.72,4.72,0,0,1-1.27,1.79,3.39,3.39,0,0,1-2.83.5c-1.1-.56-1.41-2.59-1-3.75a107.22,107.22,0,0,1,7-16.46s2.42-4.32,2.51-4.87c0,0-4.88,7.88-10,9.65,0,0-7.84.39.9-7.3,0,0,4.18-5.67,6.7-9.34a24.09,24.09,0,0,1,14.08-9.58s4.21-7.66,5.09-10L309.79,323S303.77,332.78,304.15,337.18Z" transform="translate(-49.24 -57.35)"/><path class="cls-32" d="M194.6,208.16s3.67,10.34-6.83,18.16c0,0,24,24.65,55.5,0,0,0-12-1.21-7.5-24.66Z" transform="translate(-49.24 -57.35)"/><path class="cls-33" d="M316.77,313.66l-21.8-57c-4.84-14.19-17.24-22.77-30.21-28.08Q254.2,224.3,243.61,220c-23.65,25.83-53.29,0-53.29,0-4.39,2.41-8.75,4.86-13.12,7.29-12.18,6.77-26.55,11.82-34.1,24.28l-34.67,60.76s3.17,22.83,12.12,28.62c0,0,2.55-14,21.16-12l-3-14.41,30.67-31.21,4.86,53H256l6.4-53,25.84,29.81-11.54,20.67c19.33-8,27.49,5.17,27.49,5.17s9.68-11.7,12.55-25.34" transform="translate(-49.24 -57.35)"/><path class="cls-31" d="M251.12,169.51c0-30.56-16.75-47.18-37.36-47.18S176.45,139,176.41,169.51c-1.18,0-7.35.43-3.84,7.45a19.81,19.81,0,0,1,4,10.46s1.33,3.16,3.31,1.71a60.75,60.75,0,0,0,21.28,27.66s13.94,9.15,24.29,1a51.58,51.58,0,0,0,22.69-28.38c1.67.56,2.76-2,2.76-2A19.81,19.81,0,0,1,255,177C258.47,170,252.31,169.53,251.12,169.51Z" transform="translate(-49.24 -57.35)"/><path class="cls-34" d="M251.52,169.66c-1.23,2.6-6.86,6.17-6.25,9.54h0c-.76-1.19.11-4.84,0-6.29a47.31,47.31,0,0,0-1.25-7.26c-1.22-5.11-2.72-9.69-5.69-14.05-3.49-5.15-7.46-8.53-14.31-8.19-4.12.21-10.32,1.2-11,6.18-3.51-8.35-18.52-8.23-23.5-1.32-2.92,4-4.12,8.6-4.8,13.45-.42,2.91-.59,5.88-1.15,8.75-.34,1.72-.6,5.28-1.55,6.44a11.38,11.38,0,0,0-5.61-7.4c-4.58-2.32-.44-24.84.54-28.19,4.72-16.08,18.78-25.47,34.9-27.17,8.1-.86,16.12-3,24.4-2.39A33.33,33.33,0,0,0,231,116.6c4.71-.76,9.16-2.24,14.19-1.87-2.66,2-1.44,4.93-2.77,7.86,5.83-.36,10.15,6.86,13.16,11-2.8-.74-5.43-2.18-8.2-3C259.69,134.15,255.21,161.81,251.52,169.66Z" transform="translate(-49.24 -57.35)"/><path class="cls-35" d="M190.32,220l-9.49,5.26s16.82,15.32,34.13,15.4h.56c17.5-.25,29.64-5.23,36.19-17.37l-8.1-3.29s-13.29,11.79-24.69,11.48C218.92,231.48,206.77,232.08,190.32,220Z" transform="translate(-49.24 -57.35)"/><rect class="cls-36" x="95.65" y="207.05" width="137.34" height="103.38" rx="5.94"/><path class="cls-37" d="M146.52,271.6v51.19c0,23.31,2.59,42.21,5.79,42.21H274.7c3.2,0,5.79-18.9,5.79-42.21V271.6Z" transform="translate(-49.24 -57.35)"/><rect class="cls-37" x="116.21" y="308.9" width="18.97" height="4.47"/><rect class="cls-37" x="190.1" y="308.9" width="18.97" height="4.47"/><path class="cls-36" d="M130.93,372.53H296.6s-2.28,7.25-6.43,10H145.92S132.37,381.16,130.93,372.53Z" transform="translate(-49.24 -57.35)"/><path class="cls-36" d="M232,167.15a27.31,27.31,0,0,0-5.78,1c-.47.14-.92.3-1.36.47a29.46,29.46,0,0,1-18.57.16,19.63,19.63,0,0,0-2.1-.86h0a26.49,26.49,0,0,0-6.42-1.25c-16.06-1.25-18.67,5.46-16,13.4,2.39,7,6.2,10.65,15.08,10.65s13.37-2.4,15.08-10.65a11.92,11.92,0,0,0,.2-3.76,4.14,4.14,0,0,1,5.52-.07,11.24,11.24,0,0,0,.12,4.26c1.7,8.25,6.21,10.65,15.08,10.65s12.68-3.61,15.08-10.65C250.67,172.61,248.07,165.89,232,167.15Zm-22.17,13.09c-1.41,6.43-5.13,8.3-12.48,8.3s-10.5-2.81-12.48-8.3c-2.24-6.2-.08-11.44,13.22-10.46C205.41,170.32,211.3,173.53,209.83,180.24Zm35.08.43c-2,5.49-5.14,8.3-12.49,8.3s-11.07-1.87-12.48-8.3c-1.47-6.71,4.42-9.92,11.75-10.46C245,169.23,247.14,174.47,244.91,180.67Z" transform="translate(-49.24 -57.35)"/><polygon class="cls-36" points="134.41 120.75 130.52 121.75 129.03 111.69 135.23 111.69 134.41 120.75"/><polygon class="cls-36" points="197.03 120.75 200.92 121.75 202.41 111.69 196.21 111.69 197.03 120.75"/></g></g></svg>